<svg width="32" height="32" viewBox="0 0 32 32" fill="none" xmlns="http://www.w3.org/2000/svg">
  <rect width="32" height="32" rx="8" fill="url(#gradient)"/>
  <!-- Music Note Icon -->
  <path d="M12 8v12c0 2.21-1.79 4-4 4s-4-1.79-4-4 1.79-4 4-4c.74 0 1.42.2 2.01.55V8h2z" fill="white"/>
  <path d="M20 8v12c0 2.21-1.79 4-4 4s-4-1.79-4-4 1.79-4 4-4c.74 0 1.42.2 2.01.55V8h2z" fill="white"/>
  <!-- Sound waves -->
  <path d="M24 6l2 2-2 2" stroke="white" stroke-width="1.5" stroke-linecap="round" stroke-linejoin="round"/>
  <path d="M24 12l2 2-2 2" stroke="white" stroke-width="1.5" stroke-linecap="round" stroke-linejoin="round"/>
  <path d="M24 18l2 2-2 2" stroke="white" stroke-width="1.5" stroke-linecap="round" stroke-linejoin="round"/>
  <defs>
    <linearGradient id="gradient" x1="0" y1="0" x2="32" y2="32">
      <stop offset="0%" stop-color="#1E40AF"/>
      <stop offset="50%" stop-color="#7C3AED"/>
      <stop offset="100%" stop-color="#EC4899"/>
    </linearGradient>
  </defs>
</svg>
